Coordinates
version=1
nRows=8
nColumns=40
inDegrees=yes

Units are S.I. units (second, meters, Newtons, ...)
If the header above contains a line with 'inDegrees', this indicates whether rotational values are in degrees (yes) or radians (no).

endheader
time	pelvis_tilt	pelvis_list	pelvis_rotation	pelvis_tx	pelvis_ty	pelvis_tz	hip_flexion_r	hip_adduction_r	hip_rotation_r	knee_angle_r	knee_angle_r_beta	ankle_angle_r	subtalar_angle_r	mtp_angle_r	hip_flexion_l	hip_adduction_l	hip_rotation_l	knee_angle_l	knee_angle_l_beta	ankle_angle_l	subtalar_angle_l	mtp_angle_l	lumbar_extension	lumbar_bending	lumbar_rotation	arm_flex_r	arm_add_r	arm_rot_r	elbow_flex_r	pro_sup_r	wrist_flex_r	wrist_dev_r	arm_flex_l	arm_add_l	arm_rot_l	elbow_flex_l	pro_sup_l	wrist_flex_l	wrist_dev_l
      3.22500000	      5.57499337	     -6.39009252	     -6.16491049	     -0.27142298	      0.97594361	     -1.01011235	      0.16921084	     -5.44054942	     -1.65257603	     77.61294032	      1.35460135	    -16.81057701	      0.00000000	      0.00000000	     16.99512853	     -7.14805001	    -14.23389740	     52.94732234	      0.92410511	     15.63667660	      0.00000000	      0.00000000	    -13.10839927	      1.64544052	     10.35815100	     89.81652389	    -19.00010015	     38.67293232	     35.17692280	     85.27989926	      0.00000000	      0.00000000	     89.84226335	    -19.00364946	     50.26871228	     45.67623750	     86.31891858	      0.00000000	      0.00000000
      3.23000000	      5.58297796	     -6.36373470	     -6.21243787	     -0.27139925	      0.97525328	     -1.01002261	      0.15513507	     -5.44434728	     -1.57067679	     77.64167942	      1.35510294	    -16.81791760	      0.00000000	      0.00000000	     17.06516155	     -7.16472232	    -14.29476459	     53.14543918	      0.92756290	     15.74277740	      0.00000000	      0.00000000	    -13.14676361	      1.61659559	     10.33833483	     89.81587309	    -18.84519683	     38.49665728	     35.06415116	     85.50304540	      0.00000000	      0.00000000	     89.84279918	    -19.11691356	     50.36942956	     45.76818729	     86.33466960	      0.00000000	      0.00000000
      3.23500000	      5.47467973	     -6.48025462	     -6.16448684	     -0.27169341	      0.97430999	     -1.01005138	      0.28547648	     -5.25349795	     -1.55152196	     77.73997251	      1.35681848	    -16.75591160	      0.00000000	      0.00000000	     17.35171738	     -7.32683948	    -14.18744770	     53.44980604	      0.93287510	     15.86080712	      0.00000000	      0.00000000	    -13.09021534	      1.75903438	     10.34768325	     89.81827821	    -18.89476240	     38.49879503	     35.13074515	     85.37742590	      0.00000000	      0.00000000	     89.84378797	    -19.02820155	     50.23783161	     45.72982856	     86.31791591	      0.00000000	      0.00000000
      3.24000000	      5.42233369	     -6.45310528	     -6.19946499	     -0.27173926	      0.97352905	     -1.01004588	      0.36185676	     -5.28781980	     -1.52246866	     77.81513279	      1.35813028	    -16.80592192	      0.00000000	      0.00000000	     17.49885808	     -7.33568251	    -14.21952197	     53.65242260	      0.93641143	     15.94738901	      0.00000000	      0.00000000	    -13.05296067	      1.71646765	     10.44353321	     89.81880626	    -19.03142287	     38.66453131	     35.23639912	     85.19869513	      0.00000000	      0.00000000	     89.84527869	    -18.86485080	     50.19019636	     45.55909024	     86.34320469	      0.00000000	      0.00000000
      3.24500000	      5.45098589	     -6.39794074	     -6.25594755	     -0.27156519	      0.97306691	     -1.00987310	      0.29607633	     -5.32273891	     -1.44066513	     77.78536924	      1.35761080	    -16.86148742	      0.00000000	      0.00000000	     17.48540619	     -7.32027729	    -14.31646673	     53.74074843	      0.93795300	     16.02583593	      0.00000000	      0.00000000	    -13.09141825	      1.65307007	     10.44627963	     89.81755122	    -18.90085784	     38.56450886	     35.10054123	     85.23595719	      0.00000000	      0.00000000	     89.84461018	    -18.99466368	     50.35984788	     45.64843223	     86.29951219	      0.00000000	      0.00000000
      3.25000000	      5.36530759	     -6.40747440	     -6.22543205	     -0.27174138	      0.97226846	     -1.00988369	      0.39524173	     -5.26770523	     -1.42678522	     77.86220493	      1.35895184	    -16.89635920	      0.00000000	      0.00000000	     17.70929811	     -7.35969921	    -14.26704907	     53.96837451	      0.94192583	     16.09421278	      0.00000000	      0.00000000	    -13.04558875	      1.68638429	     10.34963581	     89.81735178	    -18.71031981	     38.29322047	     34.96632016	     85.53228414	      0.00000000	      0.00000000	     89.84477787	    -19.10853034	     50.38635332	     45.77085266	     86.30049252	      0.00000000	      0.00000000
      3.25500000	      5.39726545	     -6.36915823	     -6.25780875	     -0.27180300	      0.97169073	     -1.00987134	      0.35350729	     -5.30312573	     -1.37876237	     77.89730638	      1.35956447	    -16.78931285	      0.00000000	      0.00000000	     17.75761426	     -7.33820954	    -14.28191952	     54.12876191	      0.94472512	     16.14719287	      0.00000000	      0.00000000	    -13.09829220	      1.62740142	     10.42234426	     89.81873134	    -18.78805143	     38.43956505	     35.01478417	     85.20369030	      0.00000000	      0.00000000	     89.84722903	    -19.00151863	     50.37190557	     45.68009775	     86.34031777	      0.00000000	      0.00000000
      3.26000000	      5.32074871	     -6.41668069	     -6.22073990	     -0.27195041	      0.97084187	     -1.00990279	      0.44133170	     -5.20646816	     -1.36773445	     77.95385013	      1.36055135	    -16.93015838	      0.00000000	      0.00000000	     17.97570924	     -7.40309702	    -14.18764090	     54.37183811	      0.94896760	     16.21224482	      0.00000000	      0.00000000	    -13.05710217	      1.68553095	     10.44755699	     89.82051564	    -18.90950792	     38.55232317	     35.11138552	     85.06539199	      0.00000000	      0.00000000	     89.84598091	    -18.87398041	     50.26749886	     45.57662928	     86.34130870	      0.00000000	      0.00000000
